<svg width="208" height="208" viewBox="0 0 208 208" fill="none" xmlns="http://www.w3.org/2000/svg">
<g filter="url(#filter0_bd_2_385)">
<rect x="8" width="182" height="182" rx="25" fill="white"/>
<rect x="8.5" y="0.5" width="181" height="181" rx="24.5" stroke="#EDEDED"/>
</g>
<path d="M142.951 126.754C137.99 126.754 135.047 124.215 134.822 120.558H139.566C139.566 121.777 140.241 123.4 143.176 123.501C145.21 123.501 146.336 122.282 146.336 121.366C146.111 119.945 144.302 119.844 142.501 119.533C140.873 119.341 139.278 118.934 137.757 118.322C136.983 117.889 136.343 117.253 135.905 116.483C135.467 115.712 135.248 114.837 135.272 113.951C135.272 110.698 137.99 108.159 142.726 108.159C147.245 108.159 150.18 110.496 150.397 114.052H145.886C145.886 113.143 145.661 111.614 142.951 111.614C141.142 111.614 140.016 111.917 139.791 113.236C139.791 115.069 143.626 114.968 146.561 115.675C149.271 116.389 151.08 118.113 151.08 120.558C151.08 125.031 147.47 126.754 142.951 126.754Z" fill="black"/>
<path d="M56.5035 96.7483L72.0787 87.7028L80.4332 102.036H59.4387" fill="black"/>
<rect x="86.9795" y="108.101" width="4.56" height="18.05" fill="black"/>
<path d="M49.2751 117.437C49.2751 120.279 51.7597 122.616 54.4617 122.616C57.4043 122.616 59.6559 120.279 59.6559 117.437C59.6559 114.696 57.4043 112.258 54.4617 112.258C53.1022 112.305 51.8109 112.865 50.8483 113.826C49.8857 114.787 49.3235 116.077 49.2751 117.437ZM54.2365 126.785C49.2751 126.785 44.9893 122.616 44.9893 117.437C44.9893 112.258 49.2751 108.19 54.2365 108.19C56.2707 108.19 58.0798 108.702 59.6559 109.812V108.391H64.1747V126.374H59.6559V125.255C58.305 126.273 56.2707 126.785 54.2365 126.785Z" fill="black"/>
<path d="M114.52 102.033L92.85 64.2361L108.426 55.0898L135.515 102.033" fill="black"/>
<path d="M70.0447 117.438C70.0447 120.28 72.3041 122.616 75.2389 122.616C77.9409 122.616 80.4332 120.28 80.4332 117.438C80.3829 116.078 79.8191 114.787 78.8553 113.826C77.8914 112.865 76.5992 112.305 75.2389 112.259C73.8659 112.265 72.5506 112.812 71.5782 113.782C70.6059 114.751 70.0549 116.065 70.0447 117.438ZM75.0138 126.786C73.7899 126.788 72.5778 126.547 71.4479 126.077C70.318 125.607 69.2927 124.917 68.4317 124.047C67.5706 123.177 66.891 122.145 66.4321 121.01C65.9733 119.876 65.7444 118.662 65.7588 117.438C65.7588 112.259 69.8195 108.19 75.0138 108.19C77.0403 108.19 78.8493 108.703 80.4332 109.813V102.196H84.9443V126.374H80.4332V125.256C78.8147 126.284 76.9308 126.816 75.0138 126.786Z" fill="black"/>
<path d="M74.7912 80.5937L90.592 71.6571L107.976 102.031H91.4924V106.503H86.9813V102.031" fill="black"/>
<path d="M148.153 106.645C147.563 106.628 147.002 106.387 146.582 105.972C146.163 105.557 145.917 104.999 145.893 104.409C145.917 103.819 146.163 103.261 146.582 102.846C147.002 102.431 147.563 102.19 148.153 102.173C148.45 102.165 148.746 102.216 149.022 102.326C149.298 102.435 149.55 102.598 149.761 102.808C149.972 103.017 150.139 103.266 150.251 103.542C150.363 103.817 150.418 104.112 150.412 104.409C150.418 104.706 150.363 105.001 150.251 105.277C150.139 105.552 149.972 105.802 149.761 106.011C149.55 106.22 149.298 106.384 149.022 106.493C148.746 106.602 148.45 106.654 148.153 106.645ZM148.153 102.484C147.019 102.484 146.344 103.392 146.344 104.409C146.344 105.426 147.019 106.342 148.153 106.342C149.279 106.342 149.954 105.426 149.954 104.409C149.954 103.392 149.279 102.484 148.153 102.484Z" fill="black"/>
<path d="M148.619 105.634L148.168 104.617H147.718V105.634H147.377V103.196H148.394C148.619 103.196 149.069 103.507 149.069 103.911C149.077 104.061 149.038 104.209 148.957 104.336C148.876 104.463 148.758 104.561 148.619 104.617L149.069 105.634H148.619ZM148.168 103.507H147.718V104.314H148.168C148.619 104.314 148.619 104.214 148.619 103.911C148.619 103.701 148.619 103.507 148.168 103.507ZM118.338 117.436C118.338 120.278 120.598 122.615 123.532 122.615C126.242 122.615 128.719 120.278 128.719 117.436C128.672 116.076 128.111 114.784 127.148 113.823C126.185 112.861 124.893 112.302 123.532 112.257C122.159 112.263 120.844 112.811 119.872 113.78C118.899 114.749 118.348 116.063 118.338 117.436ZM123.3 126.784C122.076 126.785 120.865 126.544 119.736 126.073C118.607 125.602 117.583 124.912 116.722 124.042C115.862 123.173 115.183 122.141 114.725 121.007C114.267 119.873 114.038 118.659 114.052 117.436C114.052 112.257 118.113 108.189 123.3 108.189C125.334 108.189 127.143 108.701 128.719 109.812V108.391H133.013V126.373H128.719V125.255C127.101 126.285 125.217 126.817 123.3 126.784ZM97.5843 117.436C97.5843 120.278 100.069 122.615 102.779 122.615C105.713 122.615 107.973 120.278 107.973 117.436C107.963 116.063 107.412 114.749 106.439 113.78C105.467 112.811 104.152 112.263 102.779 112.257C101.418 112.302 100.125 112.861 99.1603 113.822C98.1961 114.784 97.6328 116.075 97.5843 117.436ZM107.973 102.195H112.484V126.373H107.973V125.255C106.451 126.311 104.63 126.847 102.779 126.784C97.5843 126.784 93.2984 122.615 93.2984 117.436C93.2984 112.257 97.5843 108.189 102.779 108.189C104.805 108.189 106.614 108.701 107.973 109.812V102.195Z" fill="black"/>
<defs>
<filter id="filter0_bd_2_385" x="-1" y="-9" width="209" height="217" filterUnits="userSpaceOnUse" color-interpolation-filters="sRGB">
<feFlood flood-opacity="0" result="BackgroundImageFix"/>
<feGaussianBlur in="BackgroundImageFix" stdDeviation="4.5"/>
<feComposite in2="SourceAlpha" operator="in" result="effect1_backgroundBlur_2_385"/>
<feColorMatrix in="SourceAlpha" type="matrix" values="0 0 0 0 0 0 0 0 0 0 0 0 0 0 0 0 0 0 127 0" result="hardAlpha"/>
<feMorphology radius="5" operator="erode" in="SourceAlpha" result="effect2_dropShadow_2_385"/>
<feOffset dx="5" dy="13"/>
<feGaussianBlur stdDeviation="9"/>
<feComposite in2="hardAlpha" operator="out"/>
<feColorMatrix type="matrix" values="0 0 0 0 0.5 0 0 0 0 0.5 0 0 0 0 0.5 0 0 0 0.1 0"/>
<feBlend mode="normal" in2="effect1_backgroundBlur_2_385" result="effect2_dropShadow_2_385"/>
<feBlend mode="normal" in="SourceGraphic" in2="effect2_dropShadow_2_385" result="shape"/>
</filter>
</defs>
</svg>
