<svg width="26" height="26" viewBox="0 0 26 26" fill="none" xmlns="http://www.w3.org/2000/svg">
<path d="M21.655 12.9886C21.655 8.20209 17.7748 4.3219 12.9884 4.3219C8.20191 4.3219 4.32172 8.20209 4.32172 12.9886C4.32172 17.3143 7.49099 20.8998 11.6342 21.5499V15.4938H9.4337V12.9886H11.6342V11.0792C11.6342 8.9071 12.9281 7.70732 14.9077 7.70732C15.856 7.70732 16.8478 7.87659 16.8478 7.87659V10.0094H15.7549C14.6783 10.0094 14.3426 10.6775 14.3426 11.3628V12.9886H16.7462L16.3619 15.4938H14.3425V21.5499C18.4858 20.8998 21.655 17.3143 21.655 12.9886Z" fill="#1877F2"/>
<path d="M16.3613 15.4951L16.7456 12.9899H14.3419V11.3641C14.3419 10.6788 14.6777 10.0107 15.7543 10.0107H16.8471V7.87788C16.8471 7.87788 15.8553 7.70862 14.9071 7.70862C12.9275 7.70862 11.6336 8.9084 11.6336 11.0805V12.9899H9.43307V15.4951H11.6336V21.5512C12.0816 21.6214 12.5343 21.6566 12.9878 21.6565C13.4484 21.6565 13.9007 21.6205 14.3419 21.5512V15.4951H16.3613Z" fill="white"/>
</svg>
