<svg width="208" height="208" viewBox="0 0 208 208" fill="none" xmlns="http://www.w3.org/2000/svg">
<g filter="url(#filter0_bd_2_341)">
<rect x="8" width="182" height="182" rx="25" fill="white"/>
<rect x="8.5" y="0.5" width="181" height="181" rx="24.5" stroke="#EDEDED"/>
</g>
<path d="M79.7032 104.097L79.5982 77.9428C79.5982 75.3132 81.6455 73.186 84.2701 73.186H84.7828C87.4099 73.186 89.5408 75.3132 89.5408 77.9428L89.6453 104.097C89.6453 106.723 87.5185 108.856 84.8853 108.856H84.346C81.7129 108.856 79.7032 106.723 79.7032 104.097ZM139.764 76.2751L150.334 93.4865C152.619 97.2031 153.15 98.1716 153.15 100.912C153.15 105.233 149.233 108.54 145.757 108.54H131.486C128.877 108.54 126.775 106.739 126.775 104.136V103.839C126.775 101.238 128.877 99.1313 131.486 99.1313H140.234C140.782 99.1313 141.13 99.0576 141.274 98.711C141.434 98.3314 141.391 98.118 141.13 97.6936L134.898 87.69C134.793 87.5239 134.678 87.294 134.482 87.294C134.301 87.294 134.145 87.5239 134.061 87.7021L124.531 104.05C123.055 106.645 121.307 108.54 118.703 108.54H100.391C96.9257 108.54 93.433 105.121 93.433 101.578V77.9284C93.433 75.3295 95.5371 73.2189 98.1314 73.2189H98.7323C101.333 73.2189 103.443 75.3295 103.443 77.9284L103.435 97.2484C103.435 97.9622 103.951 98.5262 104.721 98.5262H113.826C115.415 98.5262 116.377 97.9542 117.214 96.5634L129.451 76.2751C130.62 74.345 132.49 73.3131 134.697 73.3131C136.832 73.3131 138.524 74.2792 139.764 76.2751ZM56.1375 96.2968C55.9695 96.2965 55.803 96.3294 55.6478 96.3937C55.4925 96.458 55.3515 96.5523 55.2328 96.6712C55.1141 96.7901 55.0201 96.9314 54.9561 97.0868C54.8921 97.2422 54.8594 97.4087 54.86 97.5767V104.159C54.86 106.76 52.7537 108.86 50.1575 108.86H49.5525C46.956 108.86 44.85 106.76 44.85 104.159L44.8541 92.1883C44.8541 89.1504 47.1859 86.5844 50.4548 86.5844H69.5764C72.1706 86.5844 74.2786 88.6928 74.2786 91.2938V91.5892C74.2786 94.1942 72.1706 96.2968 69.5764 96.2968H56.1375Z" fill="#03234C"/>
<path d="M49.6099 73.8633H71.8833C74.5084 73.8633 76.6435 75.9123 76.6435 78.536V78.8311C76.6435 81.467 74.5084 83.5961 71.8833 83.5961H49.6102C46.9828 83.5961 44.8522 81.467 44.8522 78.8311V78.505C44.8519 75.8755 46.9828 73.8633 49.6102 73.8633" fill="#E51937"/>
<defs>
<filter id="filter0_bd_2_341" x="-1" y="-9" width="209" height="217" filterUnits="userSpaceOnUse" color-interpolation-filters="sRGB">
<feFlood flood-opacity="0" result="BackgroundImageFix"/>
<feGaussianBlur in="BackgroundImageFix" stdDeviation="4.5"/>
<feComposite in2="SourceAlpha" operator="in" result="effect1_backgroundBlur_2_341"/>
<feColorMatrix in="SourceAlpha" type="matrix" values="0 0 0 0 0 0 0 0 0 0 0 0 0 0 0 0 0 0 127 0" result="hardAlpha"/>
<feMorphology radius="5" operator="erode" in="SourceAlpha" result="effect2_dropShadow_2_341"/>
<feOffset dx="5" dy="13"/>
<feGaussianBlur stdDeviation="9"/>
<feComposite in2="hardAlpha" operator="out"/>
<feColorMatrix type="matrix" values="0 0 0 0 0.5 0 0 0 0 0.5 0 0 0 0 0.5 0 0 0 0.1 0"/>
<feBlend mode="normal" in2="effect1_backgroundBlur_2_341" result="effect2_dropShadow_2_341"/>
<feBlend mode="normal" in="SourceGraphic" in2="effect2_dropShadow_2_341" result="shape"/>
</filter>
</defs>
</svg>
