<svg width="26" height="26" viewBox="0 0 26 26" fill="none" xmlns="http://www.w3.org/2000/svg">
<path d="M12.9936 4.32178C9.37434 4.32178 8.31585 4.32551 8.1101 4.34258C7.36737 4.40432 6.90519 4.52126 6.40168 4.77195C6.01365 4.96463 5.70763 5.18798 5.4056 5.50108C4.85555 6.07206 4.52219 6.77452 4.40152 7.60952C4.34284 8.01489 4.32578 8.09756 4.32231 10.1681C4.32098 10.8583 4.32231 11.7667 4.32231 12.985C4.32231 16.6013 4.32631 17.6588 4.34364 17.8641C4.40365 18.5868 4.51699 19.0415 4.75701 19.5389C5.21572 20.491 6.09179 21.2057 7.12388 21.4724C7.48124 21.5644 7.87594 21.6151 8.38265 21.6391C8.59734 21.6484 10.7855 21.6551 12.975 21.6551C15.1646 21.6551 17.3541 21.6524 17.5634 21.6418C18.1501 21.6142 18.4908 21.5684 18.8675 21.4711C19.3793 21.3398 19.8562 21.0985 20.265 20.7638C20.6738 20.4292 21.0047 20.0093 21.2344 19.5336C21.4698 19.0482 21.5891 18.5762 21.6431 17.8912C21.6548 17.7418 21.6598 15.3607 21.6598 12.9828C21.6598 10.6044 21.6544 8.2277 21.6427 8.07836C21.588 7.3823 21.4687 6.91426 21.2257 6.41955C21.0264 6.01459 20.805 5.71216 20.4837 5.40293C19.9103 4.85516 19.2089 4.52179 18.373 4.40125C17.968 4.34271 17.8873 4.32538 15.8151 4.32178H12.9936Z" fill="url(#paint0_radial_2_427)"/>
<path d="M12.9936 4.32178C9.37434 4.32178 8.31585 4.32551 8.1101 4.34258C7.36737 4.40432 6.90519 4.52126 6.40168 4.77195C6.01365 4.96463 5.70763 5.18798 5.4056 5.50108C4.85555 6.07206 4.52219 6.77452 4.40152 7.60952C4.34284 8.01489 4.32578 8.09756 4.32231 10.1681C4.32098 10.8583 4.32231 11.7667 4.32231 12.985C4.32231 16.6013 4.32631 17.6588 4.34364 17.8641C4.40365 18.5868 4.51699 19.0415 4.75701 19.5389C5.21572 20.491 6.09179 21.2057 7.12388 21.4724C7.48124 21.5644 7.87594 21.6151 8.38265 21.6391C8.59734 21.6484 10.7855 21.6551 12.975 21.6551C15.1646 21.6551 17.3541 21.6524 17.5634 21.6418C18.1501 21.6142 18.4908 21.5684 18.8675 21.4711C19.3793 21.3398 19.8562 21.0985 20.265 20.7638C20.6738 20.4292 21.0047 20.0093 21.2344 19.5336C21.4698 19.0482 21.5891 18.5762 21.6431 17.8912C21.6548 17.7418 21.6598 15.3607 21.6598 12.9828C21.6598 10.6044 21.6544 8.2277 21.6427 8.07836C21.588 7.3823 21.4687 6.91426 21.2257 6.41955C21.0264 6.01459 20.805 5.71216 20.4837 5.40293C19.9103 4.85516 19.2089 4.52179 18.373 4.40125C17.968 4.34271 17.8873 4.32538 15.8151 4.32178H12.9936Z" fill="url(#paint1_radial_2_427)"/>
<path d="M12.9899 6.58704C11.2516 6.58704 11.0335 6.59464 10.3507 6.62571C9.66935 6.65691 9.20425 6.76478 8.79728 6.92306C8.37631 7.08655 8.01921 7.30523 7.66345 7.66113C7.30742 8.01689 7.08873 8.37399 6.92472 8.79482C6.76604 9.20192 6.65803 9.66716 6.62736 10.3483C6.59696 11.031 6.58896 11.2493 6.58896 12.9876C6.58896 14.7259 6.59669 14.9433 6.62763 15.6261C6.65896 16.3075 6.76684 16.7726 6.92499 17.1795C7.0886 17.6005 7.30729 17.9576 7.66318 18.3134C8.01881 18.6694 8.37591 18.8886 8.79661 19.0521C9.20385 19.2104 9.66909 19.3182 10.3503 19.3495C11.0331 19.3805 11.2511 19.3881 12.9892 19.3881C14.7277 19.3881 14.9451 19.3805 15.6279 19.3495C16.3093 19.3182 16.7749 19.2104 17.1821 19.0521C17.603 18.8886 17.9595 18.6694 18.3152 18.3134C18.6712 17.9576 18.8899 17.6005 19.0539 17.1797C19.2112 16.7726 19.3192 16.3073 19.3512 15.6262C19.3819 14.9435 19.3899 14.7259 19.3899 12.9876C19.3899 11.2493 19.3819 11.0311 19.3512 10.3484C19.3192 9.66703 19.2112 9.20192 19.0539 8.79496C18.8899 8.37399 18.6712 8.01689 18.3152 7.66113C17.9591 7.3051 17.6031 7.08641 17.1817 6.92306C16.7737 6.76478 16.3083 6.65691 15.6269 6.62571C14.9442 6.59464 14.7269 6.58704 12.988 6.58704H12.9899ZM12.4157 7.74047C12.5861 7.7402 12.7763 7.74047 12.9899 7.74047C14.6988 7.74047 14.9014 7.7466 15.5763 7.77727C16.2003 7.80581 16.539 7.91008 16.7646 7.99769C17.0633 8.1137 17.2763 8.25238 17.5002 8.4764C17.7242 8.70042 17.8629 8.91377 17.9791 9.21246C18.0667 9.43781 18.1711 9.77651 18.1995 10.4006C18.2302 11.0753 18.2369 11.278 18.2369 12.9861C18.2369 14.6943 18.2302 14.8969 18.1995 15.5717C18.171 16.1957 18.0667 16.5344 17.9791 16.7598C17.8631 17.0585 17.7242 17.2711 17.5002 17.495C17.2761 17.719 17.0635 17.8577 16.7646 17.9737C16.5393 18.0617 16.2003 18.1658 15.5763 18.1943C14.9015 18.225 14.6988 18.2316 12.9899 18.2316C11.2808 18.2316 11.0783 18.225 10.4036 18.1943C9.7795 18.1655 9.4408 18.0612 9.21505 17.9736C8.91636 17.8576 8.70301 17.7189 8.47899 17.4949C8.25497 17.2709 8.11629 17.0581 8.00001 16.7592C7.9124 16.5339 7.808 16.1952 7.77959 15.5711C7.74892 14.8964 7.74279 14.6937 7.74279 12.9845C7.74279 11.2753 7.74892 11.0737 7.77959 10.399C7.80813 9.77491 7.9124 9.43621 8.00001 9.21059C8.11602 8.9119 8.25497 8.69855 8.47899 8.47453C8.70301 8.25051 8.91636 8.11183 9.21505 7.99556C9.44067 7.90755 9.7795 7.80354 10.4036 7.77487C10.994 7.7482 11.2228 7.7402 12.4157 7.73887V7.74047ZM16.4065 8.80322C16.2545 8.80322 16.106 8.84828 15.9797 8.93268C15.8534 9.01709 15.755 9.13706 15.6968 9.27742C15.6387 9.41779 15.6235 9.57223 15.6532 9.72123C15.6828 9.87023 15.756 10.0071 15.8635 10.1145C15.9709 10.2219 16.1078 10.295 16.2568 10.3246C16.4058 10.3542 16.5602 10.339 16.7006 10.2808C16.8409 10.2226 16.9609 10.1242 17.0452 9.99781C17.1296 9.87147 17.1746 9.72294 17.1745 9.57102C17.1745 9.14699 16.8305 8.80296 16.4065 8.80296V8.80322ZM12.9899 9.70063C11.1747 9.70063 9.70296 11.1724 9.70296 12.9876C9.70296 14.8028 11.1747 16.2739 12.9899 16.2739C14.8051 16.2739 16.2765 14.8028 16.2765 12.9876C16.2765 11.1724 14.805 9.70063 12.9898 9.70063H12.9899ZM12.9899 10.8541C14.1681 10.8541 15.1234 11.8092 15.1234 12.9876C15.1234 14.1658 14.1681 15.1211 12.9899 15.1211C11.8115 15.1211 10.8564 14.1658 10.8564 12.9876C10.8564 11.8092 11.8115 10.8541 12.9899 10.8541Z" fill="white"/>
<defs>
<radialGradient id="paint0_radial_2_427" cx="0" cy="0" r="1" gradientUnits="userSpaceOnUse" gradientTransform="translate(8.92716 22.9901) rotate(-90) scale(17.1786 15.9818)">
<stop stop-color="#FFDD55"/>
<stop offset="0.1" stop-color="#FFDD55"/>
<stop offset="0.5" stop-color="#FF543E"/>
<stop offset="1" stop-color="#C837AB"/>
</radialGradient>
<radialGradient id="paint1_radial_2_427" cx="0" cy="0" r="1" gradientUnits="userSpaceOnUse" gradientTransform="translate(1.4175 5.57044) rotate(78.6776) scale(7.67898 31.6611)">
<stop stop-color="#3771C8"/>
<stop offset="0.128" stop-color="#3771C8"/>
<stop offset="1" stop-color="#6600FF" stop-opacity="0"/>
</radialGradient>
</defs>
</svg>
