<svg width="26" height="26" viewBox="0 0 26 26" fill="none" xmlns="http://www.w3.org/2000/svg">
<path d="M9.04818 21.6551C17.0968 21.6551 21.4983 14.9872 21.4983 9.20504C21.4983 9.01567 21.4944 8.82716 21.4859 8.63943C22.3423 8.01977 23.0814 7.25249 23.6686 6.37356C22.8846 6.7221 22.0409 6.95671 21.1558 7.06248C22.0592 6.52071 22.7528 5.66381 23.08 4.64224C22.221 5.15183 21.2813 5.51104 20.3014 5.70439C19.5029 4.85387 18.3662 4.3219 17.1073 4.3219C14.6909 4.3219 12.7313 6.28153 12.7313 8.69704C12.7313 9.04043 12.7698 9.37444 12.8448 9.69478C9.20807 9.51178 5.98325 7.77059 3.82502 5.12297C3.4363 5.7907 3.23183 6.54965 3.2325 7.32228C3.2325 8.8404 4.00501 10.1806 5.17974 10.9646C4.48488 10.9434 3.80526 10.7557 3.198 10.4173C3.19736 10.4357 3.19736 10.4536 3.19736 10.4732C3.19736 12.5924 4.70567 14.3617 6.70788 14.7626C6.33183 14.8651 5.9438 14.9169 5.55405 14.9167C5.27803 14.9165 5.00266 14.89 4.73165 14.8377C5.28874 16.5763 6.90412 17.8415 8.8193 17.8769C7.32165 19.0508 5.43503 19.7499 3.38458 19.7499C3.03182 19.7499 2.68335 19.7299 2.34082 19.6894C4.2774 20.9307 6.57691 21.6549 9.0484 21.6549" fill="#1DA1F2"/>
</svg>
